<?xml version="1.0" encoding="UTF-8"?>
<svg clip-rule="evenodd" fill-rule="evenodd" image-rendering="optimizeQuality" shape-rendering="geometricPrecision" text-rendering="geometricPrecision" version="1.1" viewBox="0 0 461.69 435.54" xml:space="preserve" xmlns="http://www.w3.org/2000/svg">
 <defs><style type="text/css">
   <![CDATA[
    .fil0 {fill:#ffffff}
   ]]>
  </style></defs>
 <g transform="translate(-59.813 -46.344)">
  
  <g fill="#fff">
   <path class="fil0" d="m59.813 91.686c249.4-61.12 212.11-60.55 461.69 0-16.41 146.02-73.31 266.87-180.34 356.6-52.69 44.19-47.59 44.61-100.19 0.69-107.55-89.8-164.71-210.9-181.16-357.29zm302.38 122.32c-12.84 50.2-17.11 105.59-18.78 157.09-0.3 9.16-0.5 18.31-0.62 27.46 73.62-71.1 115.81-159.03 135.06-258.44-42.48 18.64-89.41 47.46-115.66 73.89zm-55.43 216.59c-0.11-20.18 0.09-40.39 0.75-60.67 1.81-55.89 6.66-115.52 21.15-169.65l1.16-4.35 3.07-3.28c26.93-28.76 74.62-59.51 120.37-80.83-27.2-6.73-54.44-13.33-81.71-19.17-26.62-5.71-53.77-10.65-81.09-10.68-27.28-0.03-54.34 4.85-80.93 10.54-27.24 5.84-54.47 12.46-81.64 19.23 45.79 21.32 93.57 52.11 120.53 80.91l3.07 3.28 1.17 4.35c14.49 54.13 19.33 113.76 21.15 169.65 0.65 20.25 0.85 40.44 0.74 60.59 5.39 4.61 11.48 9.69 16.21 13.01 4.65-3.29 10.62-8.3 16-12.93zm-87.64-216.59c-26.25-26.43-73.17-55.25-115.66-73.89 19.26 99.45 61.46 187.36 135.06 258.44-0.12-9.14-0.32-18.29-0.62-27.46-1.67-51.5-5.94-106.89-18.78-157.09z" fill="#fff"/>
   
  </g>
  
 </g>
</svg>
